<?xml version="1.0" standalone="no"?>
<!DOCTYPE svg PUBLIC "-//W3C//DTD SVG 20010904//EN"
 "http://www.w3.org/TR/2001/REC-SVG-20010904/DTD/svg10.dtd">
<svg version="1.0" xmlns="http://www.w3.org/2000/svg"
 width="656.000000pt" height="656.000000pt" viewBox="0 0 656.000000 656.000000"
 preserveAspectRatio="xMidYMid meet">

<g transform="translate(0.000000,656.000000) scale(0.100000,-0.100000)"
fill="#000000" stroke="none">
<path d="M3080 6200 c-471 -33 -921 -180 -1315 -430 -503 -319 -865 -753
-1098 -1320 -66 -159 -105 -285 -146 -470 -50 -223 -64 -351 -63 -590 0 -241
19 -418 68 -625 3 -11 7 -33 10 -50 21 -123 129 -414 226 -608 214 -429 586
-839 988 -1089 359 -223 719 -354 1145 -415 163 -23 584 -23 735 1 355 55 591
130 901 286 240 121 382 219 611 421 157 138 368 390 475 564 301 491 437 969
436 1525 0 239 -11 344 -59 580 -80 393 -275 818 -513 1120 -184 233 -288 337
-531 531 -487 388 -1228 614 -1870 569z m-990 -1190 l0 -99 36 24 c48 33 120
34 158 4 41 -33 56 -71 56 -147 0 -57 -4 -75 -27 -110 -44 -67 -134 -87 -194
-43 -23 17 -29 19 -29 6 0 -9 -9 -15 -25 -15 l-25 0 0 240 0 240 25 0 c25 0
25 0 25 -100z m2414 94 c20 -8 21 -60 1 -68 -35 -13 -63 21 -45 55 11 20 19
23 44 13z m-3044 -219 l0 -205 79 0 c92 0 111 -5 111 -31 0 -18 -9 -19 -125
-19 l-125 0 0 223 c0 123 3 227 7 230 3 4 17 7 30 7 l23 0 0 -205z m1234 176
c70 -34 100 -85 104 -177 5 -86 -9 -133 -51 -181 -50 -57 -96 -73 -214 -73
l-103 0 0 223 c0 123 3 227 8 231 4 5 52 6 108 4 78 -4 111 -10 148 -27z
m1524 -178 l2 -203 83 0 c82 0 107 -9 107 -37 0 -10 -29 -13 -125 -13 l-125 0
0 223 c0 123 3 227 7 231 4 4 16 6 28 4 19 -3 20 -10 23 -205z m-548 112 l0
-45 40 0 c36 0 40 -2 40 -25 0 -22 -4 -25 -40 -25 l-40 0 0 -104 c0 -114 9
-136 56 -136 17 0 24 -6 24 -19 0 -45 -114 -26 -125 21 -3 13 -6 70 -8 128 -2
102 -3 104 -27 110 -15 4 -26 14 -28 27 -3 17 3 22 25 25 24 3 28 8 31 38 4
35 15 50 40 50 8 0 12 -16 12 -45z m1300 0 l0 -45 40 0 c36 0 40 -2 40 -25 0
-22 -4 -25 -40 -25 l-40 0 0 -104 c0 -114 9 -136 56 -136 33 0 33 -36 0 -44
-31 -8 -84 11 -96 34 -6 10 -10 70 -10 134 l0 115 -27 3 c-20 2 -29 9 -31 25
-3 17 2 22 25 25 24 3 28 8 31 38 4 35 15 50 40 50 8 0 12 -16 12 -45z m-3065
-58 c33 -28 44 -79 45 -209 l0 -98 -30 0 c-20 0 -30 5 -30 15 0 12 -6 11 -31
-7 -22 -17 -43 -23 -77 -22 -38 1 -50 6 -74 33 -31 35 -35 68 -13 110 18 35
63 57 138 66 48 5 57 10 57 26 0 11 -11 31 -25 45 -21 21 -31 24 -62 18 -21
-4 -46 -11 -57 -16 -22 -12 -39 2 -30 25 8 22 49 35 111 36 40 1 58 -4 78 -22z
m1194 -3 c34 -28 55 -83 49 -129 l-3 -30 -112 -3 c-122 -3 -125 -5 -101 -57
23 -51 88 -68 155 -40 45 19 43 19 43 -9 0 -25 -23 -39 -87 -51 -117 -23 -209
94 -174 223 22 84 68 121 148 122 41 0 58 -5 82 -26z m352 16 c39 -21 49 -62
49 -195 l0 -125 -25 0 -25 0 0 104 c0 56 -5 117 -11 134 -20 57 -88 63 -134
12 -17 -19 -21 -39 -23 -136 -4 -113 -4 -114 -28 -114 l-24 0 0 160 0 160 25
0 c19 0 25 -5 25 -21 0 -20 1 -20 31 5 33 28 102 36 140 16z m552 -1 c44 -20
51 -46 55 -186 l4 -133 -31 0 c-22 0 -31 5 -31 17 0 15 -1 15 -18 0 -70 -63
-183 -29 -185 57 -2 72 42 106 156 121 38 5 47 10 47 26 0 65 -61 82 -152 44
-14 -6 -18 -2 -18 18 0 19 7 28 28 35 37 14 116 14 145 1z m795 2 c18 -11 10
-47 -9 -43 -38 9 -98 5 -113 -7 -34 -28 -20 -57 42 -86 77 -36 102 -61 102
-101 0 -45 -35 -83 -89 -95 -24 -5 -51 -8 -60 -5 -9 2 -28 7 -43 10 -23 5 -28
12 -28 36 l0 29 35 -15 c49 -20 91 -18 116 7 18 18 19 23 6 42 -8 12 -39 34
-70 49 -30 15 -62 37 -71 50 -32 45 -11 105 44 127 31 12 120 14 138 2z m-278
-161 l0 -160 -30 0 -30 0 0 160 0 160 30 0 30 0 0 -160z m1102 -292 c20 -30
101 -244 149 -391 146 -444 159 -736 53 -1152 -36 -144 -159 -503 -180 -526
-25 -27 -62 -25 -76 6 -10 22 -1 56 65 253 124 370 157 528 157 757 0 254 -50
472 -194 848 -30 78 -58 154 -61 168 -13 52 58 82 87 37z m-4731 -68 c29 -16
24 -56 -25 -178 -228 -568 -225 -908 15 -1670 52 -162 60 -198 50 -218 -14
-32 -65 -33 -85 -2 -8 13 -39 106 -70 208 -172 574 -211 851 -165 1165 29 194
173 637 224 688 19 20 29 21 56 7z m1974 -111 c47 -13 119 -58 206 -128 66
-53 149 -91 199 -91 51 0 112 31 220 112 104 78 186 118 238 118 115 -1 298
-121 359 -237 48 -90 60 -185 40 -316 -14 -93 -66 -274 -87 -302 -16 -23 -52
-126 -46 -132 9 -9 65 12 164 60 74 37 82 44 82 70 0 56 34 97 80 97 21 0 40
-28 33 -47 -3 -9 6 -13 29 -13 18 0 48 -9 66 -20 29 -18 32 -24 32 -67 -1 -79
-42 -113 -136 -113 -46 0 -78 -7 -126 -28 -34 -15 -115 -43 -178 -62 -63 -19
-118 -39 -122 -45 -27 -38 -94 -291 -124 -470 -21 -124 -44 -191 -84 -251 -61
-88 -141 -109 -203 -54 -36 32 -58 89 -91 240 -32 142 -70 190 -154 190 -72 0
-113 -54 -141 -185 -38 -180 -61 -234 -111 -260 -41 -21 -82 -19 -121 8 -79
53 -121 145 -154 337 -9 52 -21 118 -26 145 -16 78 -81 289 -93 302 -6 6 -53
23 -105 38 -52 14 -133 42 -181 61 -66 25 -102 34 -148 34 -55 0 -64 3 -96 34
-30 27 -36 41 -36 73 0 52 32 83 94 90 33 4 43 9 39 19 -7 20 15 44 42 44 31
0 58 -34 64 -83 5 -38 11 -44 56 -69 55 -30 173 -78 193 -78 11 0 -6 53 -43
135 -30 63 -75 213 -86 285 -6 41 -9 116 -6 166 4 74 11 102 35 150 62 122
242 249 362 253 14 0 43 -4 65 -10z m1556 -327 c-6 -2 -11 -15 -11 -28 0 -25
-14 -32 -26 -13 -3 6 -15 9 -25 6 -16 -4 -18 -1 -13 18 3 12 1 26 -5 29 -18
11 -13 26 8 26 11 0 23 5 26 10 4 7 17 0 32 -17 16 -16 21 -29 14 -31z m-2371
-54 c0 -9 3 -23 6 -32 4 -10 1 -16 -9 -16 -8 0 -17 -7 -20 -15 -5 -12 -11 -10
-31 8 -16 14 -21 25 -15 33 5 6 7 18 4 26 -4 11 3 14 30 14 26 -1 35 -5 35
-18z m190 -88 c0 -5 11 -10 25 -10 27 0 30 -6 16 -29 -6 -8 -6 -24 0 -38 8
-21 6 -23 -16 -17 -15 4 -32 1 -40 -6 -12 -10 -15 -9 -15 8 0 11 -7 25 -15 32
-13 11 -12 16 8 41 23 29 37 36 37 19z m2059 -87 c2 -1 -2 -9 -8 -17 -7 -8
-10 -19 -7 -25 3 -5 -9 -9 -29 -8 -20 1 -34 6 -32 11 3 6 0 19 -5 29 -6 12 -5
17 6 17 7 0 17 7 20 16 6 15 9 15 29 -2 12 -10 24 -20 26 -21z m-2281 -96 c11
-13 10 -16 -7 -22 -12 -3 -21 -15 -21 -26 0 -23 -13 -25 -30 -4 -8 10 -21 13
-33 9 -17 -5 -19 -3 -12 12 5 11 8 32 7 47 -1 23 2 27 17 22 11 -3 24 1 32 11
12 15 14 14 24 -8 5 -14 16 -32 23 -41z m2582 34 c0 -11 9 -23 20 -26 24 -8
25 -18 5 -35 -8 -7 -15 -24 -15 -38 0 -23 -1 -24 -18 -9 -11 10 -26 14 -41 10
-21 -5 -23 -4 -17 25 4 18 3 33 -3 37 -19 11 -12 25 13 25 13 0 26 7 30 15 8
21 26 19 26 -4z m-2272 -1596 l2 -30 -16 23 c-11 14 -27 22 -45 22 l-29 0 0
-110 c0 -93 3 -110 18 -119 13 -8 4 -10 -37 -11 -47 0 -52 2 -38 13 15 10 17
27 15 117 -3 103 -4 105 -27 108 -17 3 -30 -4 -43 -20 l-18 -23 0 26 c0 14 3
29 7 33 4 4 52 5 107 4 l101 -3 3 -30z m99 17 c-21 -23 -23 -154 -4 -192 17
-34 77 -40 106 -11 18 18 21 34 21 107 0 71 -3 89 -17 100 -16 12 -13 13 26
14 42 0 43 -1 28 -18 -13 -14 -17 -38 -17 -96 0 -111 -23 -145 -97 -146 -30 0
-50 7 -70 24 -26 23 -28 30 -31 118 -3 71 -7 96 -20 106 -13 10 -7 12 38 12
51 0 52 -1 37 -18z m416 12 c35 -6 37 -9 37 -43 -1 -32 -2 -34 -12 -16 -26 47
-79 61 -98 24 -14 -26 -1 -43 52 -70 80 -41 97 -81 53 -125 -22 -22 -32 -25
-85 -22 l-60 3 0 40 c1 37 2 39 15 20 30 -42 37 -46 73 -43 32 3 37 7 40 29 3
23 -5 32 -56 63 -80 48 -91 78 -47 121 26 27 31 28 88 19z m274 -14 c108 -66
65 -240 -61 -240 -130 0 -172 180 -56 242 44 23 77 23 117 -2z m215 -72 l73
-92 3 78 c2 66 0 80 -15 92 -16 12 -13 13 26 14 42 0 43 -1 28 -18 -13 -14
-17 -44 -19 -132 l-3 -115 -80 98 -80 99 -3 -83 c-2 -70 0 -86 14 -96 15 -11
11 -13 -32 -12 -39 0 -45 2 -26 9 21 9 22 15 22 115 0 58 -4 105 -8 105 -5 0
-17 7 -28 15 -18 13 -17 14 18 15 34 0 41 -6 110 -92z m308 77 c16 -8 31 -23
35 -34 6 -20 -10 -71 -22 -71 -5 0 -14 -4 -22 -9 -11 -7 -7 -19 23 -60 21 -28
44 -51 51 -51 8 0 17 -4 20 -10 4 -6 -8 -10 -29 -10 -31 0 -39 6 -77 60 -23
33 -47 59 -53 57 -26 -9 -16 -103 12 -110 9 -3 -9 -5 -40 -6 l-58 -1 20 20
c17 17 20 33 20 110 0 77 -3 93 -20 110 l-20 20 65 0 c39 0 78 -6 95 -15z
m188 1 c-15 -11 -18 -30 -18 -120 0 -101 1 -107 23 -116 17 -7 8 -9 -38 -9
-45 0 -56 2 -42 10 14 8 17 26 17 116 0 89 -3 108 -17 119 -16 12 -11 13 37
13 48 0 53 -1 38 -13z m165 8 c35 -6 37 -9 37 -43 -1 -32 -2 -34 -12 -16 -25
44 -74 59 -98 30 -19 -22 -6 -40 54 -79 60 -38 80 -66 71 -97 -11 -34 -48 -50
-109 -47 l-56 3 0 40 c1 35 2 37 12 20 24 -44 82 -61 108 -30 18 22 4 48 -37
70 -62 34 -83 55 -83 83 0 32 8 45 35 60 24 13 28 14 78 6z m271 -123 c25 -56
53 -109 63 -117 16 -12 12 -13 -37 -13 -30 0 -49 3 -42 6 15 6 16 37 2 64 -8
14 -21 19 -56 19 -38 0 -46 -4 -56 -26 -9 -20 -9 -30 0 -45 11 -18 9 -19 -30
-19 -38 1 -41 2 -25 14 9 7 35 55 58 106 52 121 59 134 69 124 5 -5 29 -56 54
-113z m-2093 -313 c9 -7 45 -49 80 -93 l64 -80 3 74 c2 58 -1 77 -14 92 -16
18 -16 19 27 19 35 -1 40 -3 27 -11 -16 -9 -18 -26 -18 -129 0 -66 -3 -120 -7
-120 -5 1 -42 43 -83 94 -41 52 -78 92 -82 89 -5 -2 -8 -37 -8 -78 0 -65 3
-76 22 -89 22 -15 20 -16 -27 -15 -28 1 -42 3 -32 6 15 4 17 18 17 113 0 100
-2 109 -22 123 l-23 16 31 0 c16 1 37 -5 45 -11z m394 -2 c51 -22 77 -69 72
-130 -4 -42 -10 -55 -41 -83 -105 -96 -256 30 -188 156 19 35 72 71 105 71 10
0 33 -6 52 -14z m228 8 c35 -6 37 -9 37 -43 l-1 -36 -15 27 c-23 43 -86 51
-100 13 -8 -20 11 -42 58 -66 80 -41 97 -81 53 -125 -22 -22 -32 -25 -85 -22
l-60 3 0 40 c1 37 2 39 15 20 28 -39 36 -45 60 -45 38 0 55 11 55 36 0 18 -12
31 -55 55 -81 45 -98 90 -49 128 29 23 32 24 87 15z m275 -5 c-15 -9 -18 -26
-18 -119 0 -93 3 -110 18 -119 13 -8 5 -10 -36 -11 -49 0 -52 1 -38 16 23 23
23 200 -1 226 -15 17 -14 18 38 18 42 -1 50 -3 37 -11z m145 -86 c22 -51 44
-93 47 -93 3 0 24 42 46 93 l40 92 39 3 c32 2 36 0 23 -8 -15 -9 -18 -27 -18
-120 0 -93 3 -110 18 -119 13 -8 2 -10 -43 -10 -33 0 -53 3 -45 6 8 3 18 11
22 17 11 16 10 168 -1 162 -5 -3 -26 -46 -47 -96 -21 -49 -41 -90 -44 -90 -4
0 -24 39 -44 88 -21 48 -42 91 -47 97 -5 5 -9 -26 -9 -78 0 -82 2 -88 23 -97
17 -7 12 -9 -28 -9 -39 0 -46 2 -32 10 14 9 17 26 17 117 0 73 -4 112 -12 121
-11 10 -7 12 20 9 32 -3 36 -8 75 -95z m366 86 c85 -30 57 -139 -35 -139 -33
0 -34 -1 -34 -39 0 -23 7 -46 16 -55 14 -15 11 -16 -38 -16 -41 1 -49 3 -35
11 14 8 17 26 17 116 0 89 -3 108 -17 119 -16 12 -11 13 38 14 31 0 70 -5 88
-11z m279 -21 c90 -83 40 -228 -78 -228 -72 0 -120 53 -120 133 0 103 124 163
198 95z m241 8 c29 -27 27 -70 -5 -95 l-26 -20 22 -36 c12 -19 36 -46 53 -60
l32 -25 -35 0 c-31 1 -40 7 -77 60 -24 33 -47 60 -53 60 -5 0 -10 -22 -10 -50
0 -36 5 -52 18 -59 13 -8 4 -10 -38 -10 -42 0 -51 2 -37 10 14 8 17 26 17 116
0 89 -3 108 -17 120 -16 12 -8 13 59 11 58 -3 81 -8 97 -22z m273 -6 l5 -30
-23 21 c-13 12 -32 19 -46 17 -22 -3 -23 -7 -26 -100 -2 -87 -1 -99 18 -118
l20 -20 -57 1 c-46 0 -53 2 -35 9 22 9 23 13 20 117 l-3 108 -27 3 c-18 2 -31
-4 -42 -20 l-16 -22 0 25 c0 14 3 29 7 32 3 4 50 7 104 7 l97 0 4 -30z m168
-82 c24 -57 52 -113 63 -125 l20 -23 -47 0 c-40 0 -46 2 -37 14 8 9 8 21 0 45
-10 29 -14 31 -59 31 -44 0 -49 -2 -61 -31 -11 -28 -10 -33 6 -45 17 -13 15
-14 -24 -14 l-42 0 18 24 c10 12 38 69 62 125 24 55 46 101 51 101 4 0 26 -46
50 -102z"/>
<path d="M2150 4902 c-68 -34 -81 -161 -21 -214 74 -66 161 -4 161 115 0 47
-28 94 -62 106 -39 14 -37 14 -78 -7z"/>
<path d="M2498 5034 c-5 -4 -8 -85 -8 -181 l0 -173 62 0 c71 0 132 25 163 68
15 20 21 47 23 102 3 65 1 79 -20 109 -13 19 -37 43 -54 53 -34 20 -154 36
-166 22z"/>
<path d="M1786 4770 c-48 -15 -62 -62 -28 -93 45 -41 132 7 132 72 0 29 -2 31
-37 30 -21 0 -51 -5 -67 -9z"/>
<path d="M2984 4910 c-25 -10 -64 -57 -64 -76 0 -11 21 -14 89 -14 l90 0 -10
32 c-5 18 -14 38 -21 44 -18 18 -59 25 -84 14z"/>
<path d="M3896 4770 c-33 -10 -46 -25 -46 -57 0 -26 35 -53 68 -53 35 0 82 52
82 89 0 29 -2 31 -37 30 -21 0 -51 -5 -67 -9z"/>
<path d="M2842 3780 c-44 -27 -66 -80 -59 -144 4 -43 10 -55 42 -83 31 -27 47
-33 83 -33 38 0 50 5 82 38 51 51 60 99 31 158 -37 78 -113 104 -179 64z m128
-70 c12 -22 3 -47 -24 -69 -33 -27 -78 28 -56 69 14 27 65 27 80 0z m-90 -110
c0 -23 -29 -35 -36 -15 -4 8 -4 22 0 30 7 20 36 8 36 -15z"/>
<path d="M3556 3770 c-100 -89 -50 -250 77 -250 50 0 98 37 115 88 20 61 9
108 -38 154 -50 51 -102 53 -154 8z m82 -52 c17 -17 15 -48 -5 -70 -20 -22
-31 -23 -55 -1 -34 31 -17 83 27 83 12 0 26 -5 33 -12z m60 -112 c6 -29 -15
-43 -35 -24 -14 14 -14 20 -3 33 16 19 34 15 38 -9z"/>
<path d="M3070 3298 c0 -45 30 -91 81 -125 37 -25 52 -28 119 -28 67 0 82 4
118 28 44 29 85 95 80 128 -5 34 -21 26 -35 -18 -34 -101 -170 -142 -269 -82
-30 18 -58 62 -66 103 -6 35 -28 30 -28 -6z"/>
<path d="M3001 2094 c-16 -20 -21 -41 -21 -83 0 -86 41 -130 103 -109 37 13
50 41 50 106 0 69 -25 106 -75 110 -29 2 -40 -2 -57 -24z"/>
<path d="M3557 2113 c-11 -10 -8 -91 3 -98 5 -3 22 0 37 7 49 23 40 98 -12 98
-12 0 -25 -3 -28 -7z"/>
<path d="M4176 2036 c-22 -53 -21 -56 19 -56 40 0 43 9 16 60 l-19 35 -16 -39z"/>
<path d="M2461 1664 c-16 -20 -21 -41 -21 -83 0 -86 41 -130 103 -109 37 13
50 41 50 106 0 69 -25 106 -75 110 -29 2 -40 -2 -57 -24z"/>
<path d="M3517 1684 c-4 -4 -7 -29 -7 -56 0 -47 1 -48 30 -48 39 0 57 38 38
78 -13 26 -46 40 -61 26z"/>
<path d="M3731 1671 c-38 -38 -39 -136 -2 -182 23 -29 75 -30 103 -2 22 23 35
95 24 138 -15 60 -85 86 -125 46z"/>
<path d="M4000 1635 c0 -30 4 -55 9 -55 25 0 60 21 66 40 9 30 -19 70 -50 70
-24 0 -25 -3 -25 -55z"/>
<path d="M4456 1594 c-9 -20 -15 -38 -12 -41 2 -2 20 -3 39 -1 l35 3 -15 38
c-8 20 -18 37 -22 37 -4 0 -15 -16 -25 -36z"/>
</g>
</svg>
